<svg width="644" height="76" viewBox="0 0 644 76" fill="none" xmlns="http://www.w3.org/2000/svg">
    <rect x="95.5" y="0.5" width="453" height="75" fill="#FAFAFA"/>
    <rect x="95.5" y="0.5" width="453" height="75" stroke="#E0E0E0"/>
    <path d="M456.357 65.6602V69H455.232V60.4688H458.379C459.312 60.4688 460.043 60.707 460.57 61.1836C461.102 61.6602 461.367 62.291 461.367 63.0762C461.367 63.9043 461.107 64.543 460.588 64.9922C460.072 65.4375 459.332 65.6602 458.367 65.6602H456.357ZM456.357 64.7402H458.379C458.98 64.7402 459.441 64.5996 459.762 64.3184C460.082 64.0332 460.242 63.623 460.242 63.0879C460.242 62.5801 460.082 62.1738 459.762 61.8691C459.441 61.5645 459.002 61.4062 458.443 61.3945H456.357V64.7402ZM465.697 63.6328C465.533 63.6055 465.355 63.5918 465.164 63.5918C464.453 63.5918 463.971 63.8945 463.717 64.5V69H462.633V62.6602H463.688L463.705 63.3926C464.061 62.8262 464.564 62.543 465.217 62.543C465.428 62.543 465.588 62.5703 465.697 62.625V63.6328ZM467.877 69H466.793V62.6602H467.877V69ZM466.705 60.9785C466.705 60.8027 466.758 60.6543 466.863 60.5332C466.973 60.4121 467.133 60.3516 467.344 60.3516C467.555 60.3516 467.715 60.4121 467.824 60.5332C467.934 60.6543 467.988 60.8027 467.988 60.9785C467.988 61.1543 467.934 61.3008 467.824 61.418C467.715 61.5352 467.555 61.5938 467.344 61.5938C467.133 61.5938 466.973 61.5352 466.863 61.418C466.758 61.3008 466.705 61.1543 466.705 60.9785ZM471.709 67.5293L473.279 62.6602H474.387L472.113 69H471.287L468.99 62.6602H470.098L471.709 67.5293ZM479.25 69C479.188 68.875 479.137 68.6523 479.098 68.332C478.594 68.8555 477.992 69.1172 477.293 69.1172C476.668 69.1172 476.154 68.9414 475.752 68.5898C475.354 68.2344 475.154 67.7852 475.154 67.2422C475.154 66.582 475.404 66.0703 475.904 65.707C476.408 65.3398 477.115 65.1562 478.025 65.1562H479.08V64.6582C479.08 64.2793 478.967 63.9785 478.74 63.7559C478.514 63.5293 478.18 63.416 477.738 63.416C477.352 63.416 477.027 63.5137 476.766 63.709C476.504 63.9043 476.373 64.1406 476.373 64.418H475.283C475.283 64.1016 475.395 63.7969 475.617 63.5039C475.844 63.207 476.148 62.9727 476.531 62.8008C476.918 62.6289 477.342 62.543 477.803 62.543C478.533 62.543 479.105 62.7266 479.52 63.0938C479.934 63.457 480.148 63.959 480.164 64.5996V67.5176C480.164 68.0996 480.238 68.5625 480.387 68.9062V69H479.25ZM477.451 68.1738C477.791 68.1738 478.113 68.0859 478.418 67.9102C478.723 67.7344 478.943 67.5059 479.08 67.2246V65.9238H478.23C476.902 65.9238 476.238 66.3125 476.238 67.0898C476.238 67.4297 476.352 67.6953 476.578 67.8867C476.805 68.0781 477.096 68.1738 477.451 68.1738ZM484.406 68.2324C484.793 68.2324 485.131 68.1152 485.42 67.8809C485.709 67.6465 485.869 67.3535 485.9 67.002H486.926C486.906 67.3652 486.781 67.7109 486.551 68.0391C486.32 68.3672 486.012 68.6289 485.625 68.8242C485.242 69.0195 484.836 69.1172 484.406 69.1172C483.543 69.1172 482.855 68.8301 482.344 68.2559C481.836 67.6777 481.582 66.8887 481.582 65.8887V65.707C481.582 65.0898 481.695 64.541 481.922 64.0605C482.148 63.5801 482.473 63.207 482.895 62.9414C483.32 62.6758 483.822 62.543 484.4 62.543C485.111 62.543 485.701 62.7559 486.17 63.1816C486.643 63.6074 486.895 64.1602 486.926 64.8398H485.9C485.869 64.4297 485.713 64.0938 485.432 63.832C485.154 63.5664 484.811 63.4336 484.4 63.4336C483.85 63.4336 483.422 63.6328 483.117 64.0312C482.816 64.4258 482.666 64.998 482.666 65.748V65.9531C482.666 66.6836 482.816 67.2461 483.117 67.6406C483.418 68.0352 483.848 68.2324 484.406 68.2324ZM490.219 67.4121L491.695 62.6602H492.855L490.307 69.9785C489.912 71.0332 489.285 71.5605 488.426 71.5605L488.221 71.543L487.816 71.4668V70.5879L488.109 70.6113C488.477 70.6113 488.762 70.5371 488.965 70.3887C489.172 70.2402 489.342 69.9688 489.475 69.5742L489.715 68.9297L487.453 62.6602H488.637L490.219 67.4121ZM499.061 65.8184H496.201V64.9336H499.061V65.8184ZM508.928 61.3945H506.186V69H505.066V61.3945H502.33V60.4688H508.928V61.3945ZM512.068 69.1172C511.209 69.1172 510.51 68.8359 509.971 68.2734C509.432 67.707 509.162 66.9512 509.162 66.0059V65.8066C509.162 65.1777 509.281 64.6172 509.52 64.125C509.762 63.6289 510.098 63.2422 510.527 62.9648C510.961 62.6836 511.43 62.543 511.934 62.543C512.758 62.543 513.398 62.8145 513.855 63.3574C514.312 63.9004 514.541 64.6777 514.541 65.6895V66.1406H510.246C510.262 66.7656 510.443 67.2715 510.791 67.6582C511.143 68.041 511.588 68.2324 512.127 68.2324C512.51 68.2324 512.834 68.1543 513.1 67.998C513.365 67.8418 513.598 67.6348 513.797 67.377L514.459 67.8926C513.928 68.709 513.131 69.1172 512.068 69.1172ZM511.934 63.4336C511.496 63.4336 511.129 63.5938 510.832 63.9141C510.535 64.2305 510.352 64.6758 510.281 65.25H513.457V65.168C513.426 64.6172 513.277 64.1914 513.012 63.8906C512.746 63.5859 512.387 63.4336 511.934 63.4336ZM518.865 63.6328C518.701 63.6055 518.523 63.5918 518.332 63.5918C517.621 63.5918 517.139 63.8945 516.885 64.5V69H515.801V62.6602H516.855L516.873 63.3926C517.229 62.8262 517.732 62.543 518.385 62.543C518.596 62.543 518.756 62.5703 518.865 62.625V63.6328ZM520.887 62.6602L520.916 63.3633C521.381 62.8164 522.008 62.543 522.797 62.543C523.684 62.543 524.287 62.8828 524.607 63.5625C524.818 63.2578 525.092 63.0117 525.428 62.8242C525.768 62.6367 526.168 62.543 526.629 62.543C528.02 62.543 528.727 63.2793 528.75 64.752V69H527.666V64.8164C527.666 64.3633 527.562 64.0254 527.355 63.8027C527.148 63.5762 526.801 63.4629 526.312 63.4629C525.91 63.4629 525.576 63.584 525.311 63.8262C525.045 64.0645 524.891 64.3867 524.848 64.793V69H523.758V64.8457C523.758 63.9238 523.307 63.4629 522.404 63.4629C521.693 63.4629 521.207 63.7656 520.945 64.3711V69H519.861V62.6602H520.887ZM534.082 67.3184C534.082 67.0254 533.971 66.7988 533.748 66.6387C533.529 66.4746 533.145 66.334 532.594 66.2168C532.047 66.0996 531.611 65.959 531.287 65.7949C530.967 65.6309 530.729 65.4355 530.572 65.209C530.42 64.9824 530.344 64.7129 530.344 64.4004C530.344 63.8809 530.562 63.4414 531 63.082C531.441 62.7227 532.004 62.543 532.688 62.543C533.406 62.543 533.988 62.7285 534.434 63.0996C534.883 63.4707 535.107 63.9453 535.107 64.5234H534.018C534.018 64.2266 533.891 63.9707 533.637 63.7559C533.387 63.541 533.07 63.4336 532.688 63.4336C532.293 63.4336 531.984 63.5195 531.762 63.6914C531.539 63.8633 531.428 64.0879 531.428 64.3652C531.428 64.627 531.531 64.8242 531.738 64.957C531.945 65.0898 532.318 65.2168 532.857 65.3379C533.4 65.459 533.84 65.6035 534.176 65.7715C534.512 65.9395 534.76 66.1426 534.92 66.3809C535.084 66.6152 535.166 66.9023 535.166 67.2422C535.166 67.8086 534.939 68.2637 534.486 68.6074C534.033 68.9473 533.445 69.1172 532.723 69.1172C532.215 69.1172 531.766 69.0273 531.375 68.8477C530.984 68.668 530.678 68.418 530.455 68.0977C530.236 67.7734 530.127 67.4238 530.127 67.0488H531.211C531.23 67.4121 531.375 67.7012 531.645 67.916C531.918 68.127 532.277 68.2324 532.723 68.2324C533.133 68.2324 533.461 68.1504 533.707 67.9863C533.957 67.8184 534.082 67.5957 534.082 67.3184Z"
          fill="#555555"/>
    <path opacity="0.5" d="M516 39.0002H511V44H516V39.0002Z" fill="#0074BF"/>
    <path opacity="0.7" d="M511 39.0002H506V44H511V39.0002Z" fill="#0074BF"/>
    <path opacity="0.7" d="M506 39.0002H501V44H506V39.0002Z" fill="#0074BF"/>
    <path opacity="0.5" d="M501 39.0002H496V44H501V39.0002Z" fill="#0074BF"/>
    <path opacity="0.7" d="M521 34.0003H516V39.0001H521V34.0003Z" fill="#0082BF"/>
    <path opacity="0.8" d="M516 34.0003H511V39.0001H516V34.0003Z" fill="#0082BF"/>
    <path d="M511 34.0003H506V39.0001H511V34.0003Z" fill="#0082BF"/>
    <path d="M506 34.0003H501V39.0001H506V34.0003Z" fill="#0082BF"/>
    <path opacity="0.8" d="M501 34.0003H496V39.0001H501V34.0003Z" fill="#0082BF"/>
    <path opacity="0.7" d="M496 34.0003H491V39.0001H496V34.0003Z" fill="#0082BF"/>
    <path opacity="0.5" d="M526 28.9998H521V33.9996H526V28.9998Z" fill="#008FBF"/>
    <path opacity="0.8" d="M521 28.9998H516V33.9996H521V28.9998Z" fill="#008FBF"/>
    <path d="M516 28.9998H511V33.9996H516V28.9998Z" fill="#008FBF"/>
    <path d="M511 28.9998H506V33.9996H511V28.9998Z" fill="#008FBF"/>
    <path d="M506 28.9998H501V33.9996H506V28.9998Z" fill="#008FBF"/>
    <path d="M501 28.9998H496V33.9996H501V28.9998Z" fill="#008FBF"/>
    <path opacity="0.8" d="M496 28.9998H491V33.9996H496V28.9998Z" fill="#008FBF"/>
    <path opacity="0.5" d="M491 28.9998H486V33.9996H491V28.9998Z" fill="#008FBF"/>
    <path opacity="0.7" d="M526 24H521V28.9998H526V24Z" fill="#009DBF"/>
    <path d="M521 24H516V28.9998H521V24Z" fill="#009DBF"/>
    <path d="M516 24H511V28.9998H516V24Z" fill="#009DBF"/>
    <path d="M511 24H506V28.9998H511V24Z" fill="#009DBF"/>
    <path d="M506 24H501V28.9998H506V24Z" fill="#009DBF"/>
    <path d="M501 24H496V28.9998H501V24Z" fill="#009DBF"/>
    <path d="M496 24H491V28.9998H496V24Z" fill="#009DBF"/>
    <path opacity="0.7" d="M491 24H486V28.9998H491V24Z" fill="#009DBF"/>
    <path opacity="0.7" d="M526 19.0002H521V24H526V19.0002Z" fill="#00ABBF"/>
    <path d="M521 19.0002H516V24H521V19.0002Z" fill="#00ABBF"/>
    <path d="M516 19.0002H511V24H516V19.0002Z" fill="#00ABBF"/>
    <path d="M511 19.0002H506V24H511V19.0002Z" fill="#00ABBF"/>
    <path d="M506 19.0002H501V24H506V19.0002Z" fill="#00ABBF"/>
    <path d="M501 19.0002H496V24H501V19.0002Z" fill="#00ABBF"/>
    <path d="M496 19.0002H491V24H496V19.0002Z" fill="#00ABBF"/>
    <path opacity="0.7" d="M491 19.0002H486V24H491V19.0002Z" fill="#00ABBF"/>
    <path opacity="0.5" d="M526 14.0003H521V19.0001H526V14.0003Z" fill="#00B9BF"/>
    <path opacity="0.8" d="M521 14.0003H516V19.0001H521V14.0003Z" fill="#00B9BF"/>
    <path d="M516 14.0003H511V19.0001H516V14.0003Z" fill="#00B9BF"/>
    <path d="M511 14.0003H506V19.0001H511V14.0003Z" fill="#00B9BF"/>
    <path d="M506 14.0003H501V19.0001H506V14.0003Z" fill="#00B9BF"/>
    <path d="M501 14.0003H496V19.0001H501V14.0003Z" fill="#00B9BF"/>
    <path opacity="0.8" d="M496 14.0003H491V19.0001H496V14.0003Z" fill="#00B9BF"/>
    <path opacity="0.5" d="M491 14.0003H486V19.0001H491V14.0003Z" fill="#00B9BF"/>
    <path opacity="0.7" d="M521 8.99982H516V13.9996H521V8.99982Z" fill="#00C6BF"/>
    <path opacity="0.8" d="M516 8.99982H511V13.9996H516V8.99982Z" fill="#00C6BF"/>
    <path d="M511 8.99982H506V13.9996H511V8.99982Z" fill="#00C6BF"/>
    <path d="M506 8.99982H501V13.9996H506V8.99982Z" fill="#00C6BF"/>
    <path opacity="0.8" d="M501 8.99982H496V13.9996H501V8.99982Z" fill="#00C6BF"/>
    <path opacity="0.7" d="M496 8.99982H491V13.9996H496V8.99982Z" fill="#00C6BF"/>
    <path opacity="0.5" d="M516 4H511V8.99979H516V4Z" fill="#00D4BF"/>
    <path opacity="0.7" d="M511 4H506V8.99979H511V4Z" fill="#00D4BF"/>
    <path opacity="0.7" d="M506 4H501V8.99979H506V4Z" fill="#00D4BF"/>
    <path opacity="0.5" d="M501 4H496V8.99979H501V4Z" fill="#00D4BF"/>
    <path d="M499.165 22.4228L500.559 19.3046C501.066 18.5052 500.999 17.5258 500.443 16.9702C500.369 16.8962 500.287 16.8305 500.199 16.7745C500.008 16.6575 499.794 16.5835 499.572 16.5576C499.35 16.5317 499.125 16.5545 498.912 16.6244C498.43 16.7744 498.018 17.0933 497.751 17.5225C497.751 17.5225 495.844 21.9725 495.134 23.9727C494.424 25.973 494.708 29.6409 497.445 32.3834C500.347 35.2859 504.55 35.9493 507.23 33.9375C507.342 33.8811 507.448 33.8124 507.544 33.7326L515.804 26.8354C516.206 26.5037 516.799 25.8204 516.266 25.0408C515.746 24.2804 514.761 24.7979 514.359 25.0549L509.605 28.5114C509.583 28.5298 509.557 28.5435 509.53 28.5517C509.502 28.5599 509.473 28.5624 509.444 28.559C509.416 28.5557 509.388 28.5466 509.363 28.5323C509.338 28.518 509.316 28.4988 509.298 28.4758C509.177 28.3273 509.156 27.9342 509.346 27.7783L516.633 21.5943C517.262 21.0271 517.35 20.2028 516.84 19.638C516.342 19.0849 515.552 19.1015 514.917 19.6737L508.356 24.8028C508.326 24.8279 508.29 24.8464 508.252 24.8572C508.214 24.8681 508.174 24.871 508.135 24.8659C508.095 24.8608 508.058 24.8477 508.024 24.8274C507.99 24.8072 507.96 24.7802 507.937 24.7481C507.807 24.603 507.758 24.355 507.904 24.2099L515.334 16.9992C515.615 16.7367 515.781 16.3731 515.795 15.9885C515.809 15.6038 515.669 15.2295 515.407 14.9476C515.277 14.8107 515.12 14.7017 514.947 14.6275C514.773 14.5532 514.586 14.5151 514.398 14.5155C514.009 14.5113 513.634 14.6602 513.354 14.9301L505.762 22.062C505.581 22.2436 505.225 22.062 505.182 21.8497C505.174 21.8118 505.176 21.7724 505.187 21.7353C505.198 21.6982 505.219 21.6646 505.246 21.6374L511.058 15.0205C511.199 14.8895 511.311 14.7316 511.389 14.5562C511.468 14.3807 511.51 14.1913 511.513 13.9993C511.517 13.8073 511.482 13.6165 511.41 13.4383C511.338 13.2601 511.231 13.0982 511.096 12.9622C510.96 12.8261 510.798 12.7187 510.621 12.6464C510.443 12.5741 510.252 12.5383 510.06 12.5412C509.868 12.544 509.678 12.5855 509.503 12.6631C509.327 12.7407 509.169 12.8529 509.037 12.9929L500.224 22.7362C499.908 23.0522 499.443 23.068 499.222 22.8847C499.154 22.8305 499.109 22.7517 499.099 22.6653C499.088 22.5789 499.112 22.4918 499.165 22.4228Z"
          fill="white"/>
    <path fill-rule="evenodd" clip-rule="evenodd"
          d="M492.943 56.0832C494.464 56.0832 495.251 55.4255 495.629 55.016L495.048 53.5853C494.637 54.0282 493.969 54.4142 493.041 54.4142C491.821 54.4142 490.809 53.5414 490.809 52.0075C490.809 50.4737 491.779 49.5882 493.041 49.5882C494.024 49.5882 494.821 50.2139 494.961 50.407L495.499 48.8855C495.304 48.67 494.474 48 492.943 48C490.775 48 489.038 49.5104 489.038 52.0414C489.038 54.562 490.753 56.0832 492.943 56.0832ZM486.483 55.9469H488.219V52.6425C488.219 51.2802 487.82 50.247 486.277 50.247C485.49 50.247 484.983 50.6557 484.714 51.1552C484.714 51.1552 484.724 50.5422 484.724 49.9745V48.1135H483V55.9458H484.724V53.1986C484.724 52.3708 484.951 51.7351 485.674 51.7351C486.396 51.7351 486.483 52.3254 486.483 53.0065V55.9469ZM501.086 55.947H499.437L499.403 55.3574L499.391 55.3706C499.163 55.6131 498.73 56.0728 497.883 56.0728C496.945 56.0728 495.952 55.539 495.952 54.2903C495.952 53.0415 497.041 52.6213 498.023 52.5759L499.36 52.5193V52.3947C499.36 51.8043 498.961 51.4976 498.271 51.4976C497.591 51.4976 496.912 51.8155 496.642 51.9971L496.189 50.8165C496.642 50.5783 497.473 50.2489 498.465 50.2489C499.457 50.2489 500.029 50.4871 500.45 50.8962C500.859 51.3056 501.087 51.8498 501.087 52.7922L501.086 55.947ZM499.371 53.4834L498.519 53.5399C497.991 53.5626 497.678 53.8005 497.678 54.2211C497.678 54.6524 498.012 54.9137 498.487 54.9137C498.951 54.9137 499.263 54.5959 499.371 54.4031V53.4834ZM503.901 55.2427C504.234 55.7649 504.796 56.0716 505.583 56.0716C507.126 56.0716 508.098 54.7986 508.098 53.1528C508.098 51.5069 507.128 50.2466 505.596 50.2466C504.787 50.2466 504.216 50.5771 503.827 51.0654H503.805L503.816 50.3501H502.177V58H503.901V55.2427ZM503.847 53.1312C503.847 52.2699 504.354 51.6796 505.088 51.6796V51.6781C505.832 51.6781 506.339 52.2699 506.339 53.1312C506.339 53.9924 505.832 54.5828 505.088 54.5828C504.354 54.5828 503.847 53.9924 503.847 53.1312ZM512.098 51.7351H510.922V53.745C510.922 54.2218 510.987 54.3353 511.072 54.4377C511.147 54.5285 511.256 54.5739 511.482 54.5739C511.659 54.5698 511.834 54.5352 512 54.4715L512.086 55.8908C511.687 56.0084 511.273 56.0696 510.856 56.0724C510.242 56.0724 509.832 55.8792 509.562 55.5513C509.292 55.2234 509.184 54.7566 509.184 53.905V51.7351H508.43V50.3613H509.184V48.8401H510.921V50.3613H512.096L512.098 51.7351ZM517.195 55.4062C517.197 55.4045 517.199 55.4031 517.2 55.4021L516.791 54.029C516.791 54.029 516.251 54.5739 515.442 54.5739C514.633 54.5739 514.104 54.0175 514.104 53.132C514.104 52.2465 514.687 51.7128 515.42 51.7128C515.922 51.7128 516.407 51.8899 516.79 52.2123L517.167 50.8385C517.167 50.8385 516.553 50.2482 515.194 50.2482C513.738 50.2482 512.368 51.2926 512.368 53.1659C512.368 55.0276 513.716 56.072 515.172 56.072C516.496 56.072 517.072 55.5234 517.184 55.4172C517.188 55.4127 517.192 55.409 517.195 55.4062ZM523.143 55.9469H521.406V53.0065C521.406 52.3254 521.32 51.7351 520.597 51.7351C519.875 51.7351 519.648 52.3708 519.648 53.1997V55.9469H517.924V48.1135H519.648V49.9745C519.648 50.5422 519.637 51.1552 519.637 51.1552C519.907 50.6557 520.414 50.247 521.201 50.247C522.743 50.247 523.143 51.2802 523.143 52.6425V55.9469ZM527.35 55.947H528.999L529 52.7922C529 51.8498 528.772 51.3056 528.363 50.8962C527.942 50.4871 527.37 50.2489 526.378 50.2489C525.386 50.2489 524.555 50.5783 524.102 50.8165L524.556 51.9964C524.826 51.8148 525.505 51.4969 526.185 51.4969C526.875 51.4969 527.274 51.8036 527.274 52.3939V52.5186L525.937 52.5752C524.956 52.6206 523.866 53.0408 523.866 54.2895C523.866 55.5383 524.86 56.072 525.797 56.072C526.644 56.072 527.077 55.6124 527.305 55.3699L527.318 55.3567L527.35 55.947ZM526.432 53.5399L527.284 53.4834V54.4031C527.176 54.5959 526.864 54.9137 526.4 54.9137C525.925 54.9137 525.591 54.6524 525.591 54.2211C525.591 53.8005 525.904 53.5626 526.432 53.5399Z"
          fill="#4D4D4D"/>
    <rect x="111.5" y="22.5" width="31" height="31" rx="3.5" fill="white"/>
    <rect x="111.5" y="22.5" width="31" height="31" rx="3.5" stroke="#C5C5C5"/>
    <path d="M165.57 33.0469V43H164.251V33.0469H165.57ZM175.612 41.7354V37.9277C175.612 37.6361 175.553 37.3831 175.435 37.1689C175.321 36.9502 175.147 36.7816 174.915 36.6631C174.683 36.5446 174.396 36.4854 174.054 36.4854C173.735 36.4854 173.454 36.54 173.213 36.6494C172.976 36.7588 172.789 36.9023 172.652 37.0801C172.52 37.2578 172.454 37.4492 172.454 37.6543H171.189C171.189 37.39 171.258 37.1279 171.395 36.8682C171.531 36.6084 171.727 36.3737 171.982 36.1641C172.242 35.9499 172.552 35.7812 172.912 35.6582C173.277 35.5306 173.682 35.4668 174.129 35.4668C174.667 35.4668 175.141 35.5579 175.551 35.7402C175.965 35.9225 176.289 36.1982 176.521 36.5674C176.758 36.932 176.877 37.39 176.877 37.9414V41.3867C176.877 41.6328 176.897 41.8949 176.938 42.1729C176.984 42.4508 177.05 42.6901 177.137 42.8906V43H175.817C175.754 42.8542 175.703 42.6605 175.667 42.4189C175.631 42.1729 175.612 41.945 175.612 41.7354ZM175.831 38.5156L175.845 39.4043H174.566C174.206 39.4043 173.885 39.4339 173.603 39.4932C173.32 39.5479 173.083 39.6322 172.892 39.7461C172.7 39.86 172.554 40.0036 172.454 40.1768C172.354 40.3454 172.304 40.5436 172.304 40.7715C172.304 41.0039 172.356 41.2158 172.461 41.4072C172.566 41.5986 172.723 41.7513 172.933 41.8652C173.147 41.9746 173.409 42.0293 173.719 42.0293C174.106 42.0293 174.448 41.9473 174.744 41.7832C175.04 41.6191 175.275 41.4186 175.448 41.1816C175.626 40.9447 175.722 40.7145 175.735 40.4912L176.275 41.0996C176.243 41.291 176.157 41.5029 176.016 41.7354C175.874 41.9678 175.685 42.1911 175.448 42.4053C175.216 42.6149 174.938 42.7904 174.614 42.9316C174.295 43.0684 173.935 43.1367 173.534 43.1367C173.033 43.1367 172.593 43.0387 172.215 42.8428C171.841 42.6468 171.549 42.3848 171.34 42.0566C171.135 41.724 171.032 41.3525 171.032 40.9424C171.032 40.5459 171.11 40.1973 171.265 39.8965C171.42 39.5911 171.643 39.3382 171.935 39.1377C172.226 38.9326 172.577 38.7777 172.987 38.6729C173.397 38.568 173.855 38.5156 174.361 38.5156H175.831ZM180.124 37.0732V43H178.853V35.6035H180.056L180.124 37.0732ZM179.864 39.0215L179.276 39.001C179.281 38.4951 179.347 38.028 179.475 37.5996C179.602 37.1667 179.791 36.7907 180.042 36.4717C180.293 36.1527 180.605 35.9066 180.979 35.7334C181.352 35.5557 181.785 35.4668 182.277 35.4668C182.624 35.4668 182.943 35.5169 183.234 35.6172C183.526 35.7129 183.779 35.8656 183.993 36.0752C184.207 36.2848 184.374 36.5537 184.492 36.8818C184.611 37.21 184.67 37.6064 184.67 38.0713V43H183.405V38.1328C183.405 37.7454 183.339 37.4355 183.207 37.2031C183.079 36.9707 182.897 36.8021 182.66 36.6973C182.423 36.5879 182.145 36.5332 181.826 36.5332C181.452 36.5332 181.14 36.5993 180.89 36.7314C180.639 36.8636 180.438 37.0459 180.288 37.2783C180.138 37.5107 180.028 37.7773 179.96 38.0781C179.896 38.3743 179.864 38.6888 179.864 39.0215ZM184.656 38.3242L183.809 38.584C183.813 38.1784 183.879 37.7887 184.007 37.415C184.139 37.0413 184.328 36.7087 184.574 36.417C184.825 36.1253 185.132 35.8952 185.497 35.7266C185.862 35.5534 186.279 35.4668 186.748 35.4668C187.145 35.4668 187.495 35.5192 187.801 35.624C188.111 35.7288 188.37 35.8906 188.58 36.1094C188.794 36.3236 188.956 36.5993 189.065 36.9365C189.175 37.2738 189.229 37.6748 189.229 38.1396V43H187.958V38.126C187.958 37.7113 187.892 37.39 187.76 37.1621C187.632 36.9297 187.45 36.7679 187.213 36.6768C186.98 36.5811 186.702 36.5332 186.379 36.5332C186.101 36.5332 185.855 36.5811 185.641 36.6768C185.426 36.7725 185.246 36.9046 185.101 37.0732C184.955 37.2373 184.843 37.4264 184.766 37.6406C184.693 37.8548 184.656 38.0827 184.656 38.3242ZM195.881 32.5V43H194.616V32.5H195.881ZM195.58 39.0215L195.054 39.001C195.058 38.4951 195.133 38.028 195.279 37.5996C195.425 37.1667 195.63 36.7907 195.895 36.4717C196.159 36.1527 196.473 35.9066 196.838 35.7334C197.207 35.5557 197.615 35.4668 198.062 35.4668C198.426 35.4668 198.754 35.5169 199.046 35.6172C199.338 35.7129 199.586 35.8678 199.791 36.082C200.001 36.2962 200.16 36.5742 200.27 36.916C200.379 37.2533 200.434 37.6657 200.434 38.1533V43H199.162V38.1396C199.162 37.7523 199.105 37.4424 198.991 37.21C198.877 36.973 198.711 36.8021 198.492 36.6973C198.273 36.5879 198.005 36.5332 197.686 36.5332C197.371 36.5332 197.084 36.5993 196.824 36.7314C196.569 36.8636 196.348 37.0459 196.161 37.2783C195.979 37.5107 195.835 37.7773 195.73 38.0781C195.63 38.3743 195.58 38.6888 195.58 39.0215ZM206.853 41.291V35.6035H208.124V43H206.914L206.853 41.291ZM207.092 39.7324L207.618 39.7188C207.618 40.2109 207.566 40.6667 207.461 41.0859C207.361 41.5007 207.197 41.8607 206.969 42.166C206.741 42.4714 206.442 42.7106 206.073 42.8838C205.704 43.0524 205.255 43.1367 204.727 43.1367C204.367 43.1367 204.036 43.0843 203.735 42.9795C203.439 42.8747 203.184 42.7129 202.97 42.4941C202.756 42.2754 202.589 41.9906 202.471 41.6396C202.357 41.2887 202.3 40.8672 202.3 40.375V35.6035H203.564V40.3887C203.564 40.7214 203.601 40.9971 203.674 41.2158C203.751 41.43 203.854 41.6009 203.981 41.7285C204.114 41.8516 204.259 41.9382 204.419 41.9883C204.583 42.0384 204.752 42.0635 204.925 42.0635C205.463 42.0635 205.889 41.9609 206.203 41.7559C206.518 41.5462 206.743 41.266 206.88 40.915C207.021 40.5596 207.092 40.1654 207.092 39.7324ZM211.31 37.0732V43H210.038V35.6035H211.241L211.31 37.0732ZM211.05 39.0215L210.462 39.001C210.466 38.4951 210.533 38.028 210.66 37.5996C210.788 37.1667 210.977 36.7907 211.228 36.4717C211.478 36.1527 211.79 35.9066 212.164 35.7334C212.538 35.5557 212.971 35.4668 213.463 35.4668C213.809 35.4668 214.128 35.5169 214.42 35.6172C214.712 35.7129 214.965 35.8656 215.179 36.0752C215.393 36.2848 215.559 36.5537 215.678 36.8818C215.796 37.21 215.855 37.6064 215.855 38.0713V43H214.591V38.1328C214.591 37.7454 214.525 37.4355 214.393 37.2031C214.265 36.9707 214.083 36.8021 213.846 36.6973C213.609 36.5879 213.331 36.5332 213.012 36.5332C212.638 36.5332 212.326 36.5993 212.075 36.7314C211.825 36.8636 211.624 37.0459 211.474 37.2783C211.323 37.5107 211.214 37.7773 211.146 38.0781C211.082 38.3743 211.05 38.6888 211.05 39.0215ZM215.842 38.3242L214.994 38.584C214.999 38.1784 215.065 37.7887 215.192 37.415C215.325 37.0413 215.514 36.7087 215.76 36.417C216.01 36.1253 216.318 35.8952 216.683 35.7266C217.047 35.5534 217.464 35.4668 217.934 35.4668C218.33 35.4668 218.681 35.5192 218.986 35.624C219.296 35.7288 219.556 35.8906 219.766 36.1094C219.98 36.3236 220.142 36.5993 220.251 36.9365C220.36 37.2738 220.415 37.6748 220.415 38.1396V43H219.144V38.126C219.144 37.7113 219.077 37.39 218.945 37.1621C218.818 36.9297 218.635 36.7679 218.398 36.6768C218.166 36.5811 217.888 36.5332 217.564 36.5332C217.286 36.5332 217.04 36.5811 216.826 36.6768C216.612 36.7725 216.432 36.9046 216.286 37.0732C216.14 37.2373 216.029 37.4264 215.951 37.6406C215.878 37.8548 215.842 38.0827 215.842 38.3242ZM226.69 41.7354V37.9277C226.69 37.6361 226.631 37.3831 226.513 37.1689C226.399 36.9502 226.226 36.7816 225.993 36.6631C225.761 36.5446 225.474 36.4854 225.132 36.4854C224.813 36.4854 224.533 36.54 224.291 36.6494C224.054 36.7588 223.867 36.9023 223.73 37.0801C223.598 37.2578 223.532 37.4492 223.532 37.6543H222.268C222.268 37.39 222.336 37.1279 222.473 36.8682C222.609 36.6084 222.805 36.3737 223.061 36.1641C223.32 35.9499 223.63 35.7812 223.99 35.6582C224.355 35.5306 224.76 35.4668 225.207 35.4668C225.745 35.4668 226.219 35.5579 226.629 35.7402C227.044 35.9225 227.367 36.1982 227.6 36.5674C227.837 36.932 227.955 37.39 227.955 37.9414V41.3867C227.955 41.6328 227.976 41.8949 228.017 42.1729C228.062 42.4508 228.128 42.6901 228.215 42.8906V43H226.896C226.832 42.8542 226.782 42.6605 226.745 42.4189C226.709 42.1729 226.69 41.945 226.69 41.7354ZM226.909 38.5156L226.923 39.4043H225.645C225.285 39.4043 224.963 39.4339 224.681 39.4932C224.398 39.5479 224.161 39.6322 223.97 39.7461C223.778 39.86 223.632 40.0036 223.532 40.1768C223.432 40.3454 223.382 40.5436 223.382 40.7715C223.382 41.0039 223.434 41.2158 223.539 41.4072C223.644 41.5986 223.801 41.7513 224.011 41.8652C224.225 41.9746 224.487 42.0293 224.797 42.0293C225.184 42.0293 225.526 41.9473 225.822 41.7832C226.118 41.6191 226.353 41.4186 226.526 41.1816C226.704 40.9447 226.8 40.7145 226.813 40.4912L227.354 41.0996C227.322 41.291 227.235 41.5029 227.094 41.7354C226.952 41.9678 226.763 42.1911 226.526 42.4053C226.294 42.6149 226.016 42.7904 225.692 42.9316C225.373 43.0684 225.013 43.1367 224.612 43.1367C224.111 43.1367 223.671 43.0387 223.293 42.8428C222.919 42.6468 222.628 42.3848 222.418 42.0566C222.213 41.724 222.11 41.3525 222.11 40.9424C222.11 40.5459 222.188 40.1973 222.343 39.8965C222.498 39.5911 222.721 39.3382 223.013 39.1377C223.304 38.9326 223.655 38.7777 224.065 38.6729C224.476 38.568 224.934 38.5156 225.439 38.5156H226.909ZM231.209 37.1826V43H229.944V35.6035H231.141L231.209 37.1826ZM230.908 39.0215L230.382 39.001C230.386 38.4951 230.462 38.028 230.607 37.5996C230.753 37.1667 230.958 36.7907 231.223 36.4717C231.487 36.1527 231.801 35.9066 232.166 35.7334C232.535 35.5557 232.943 35.4668 233.39 35.4668C233.754 35.4668 234.082 35.5169 234.374 35.6172C234.666 35.7129 234.914 35.8678 235.119 36.082C235.329 36.2962 235.488 36.5742 235.598 36.916C235.707 37.2533 235.762 37.6657 235.762 38.1533V43H234.49V38.1396C234.49 37.7523 234.433 37.4424 234.319 37.21C234.205 36.973 234.039 36.8021 233.82 36.6973C233.602 36.5879 233.333 36.5332 233.014 36.5332C232.699 36.5332 232.412 36.5993 232.152 36.7314C231.897 36.8636 231.676 37.0459 231.489 37.2783C231.307 37.5107 231.163 37.7773 231.059 38.0781C230.958 38.3743 230.908 38.6888 230.908 39.0215Z"
          fill="#555555"/>
</svg>
