<svg width="14" height="17" viewBox="0 0 14 17" fill="none" xmlns="http://www.w3.org/2000/svg">
    <path d="M11.6797 9.20703C11.6797 9.27734 11.5742 11.3516 13.8594 12.4414C13.4375 13.7422 11.9609 16.625 10.2383 16.625C9.25391 16.625 8.69141 15.9922 7.56641 15.9922C6.40625 15.9922 5.77344 16.625 4.89453 16.625C3.20703 16.6953 1.58984 13.5312 1.13281 12.2305C0.78125 11.2461 0.640625 10.2969 0.640625 9.38281C0.640625 6.25391 2.71484 4.74219 4.68359 4.70703C5.63281 4.70703 6.82812 5.375 7.35547 5.375C7.84766 5.375 9.21875 4.56641 10.4844 4.67188C11.7852 4.77734 12.7695 5.26953 13.4375 6.21875C12.2773 6.95703 11.6797 7.90625 11.6797 9.20703ZM9.71094 3.44141C9.00781 4.25 8.16406 4.70703 7.25 4.63672C7.17969 3.6875 7.53125 2.80859 8.16406 2.10547C8.72656 1.47266 9.71094 0.945312 10.5547 0.875C10.5547 1.26172 10.6602 2.31641 9.71094 3.44141Z"
          fill="black"/>
</svg>
