<svg width="19" height="16" viewBox="0 0 19 16" fill="none" xmlns="http://www.w3.org/2000/svg">
    <path d="M16.6367 4.09375C16.6367 4.26953 16.6367 4.41016 16.6367 4.58594C16.6367 9.47266 12.9453 15.0625 6.16016 15.0625C4.05078 15.0625 2.11719 14.4648 0.5 13.4102C0.78125 13.4453 1.0625 13.4805 1.37891 13.4805C3.10156 13.4805 4.68359 12.8828 5.94922 11.8984C4.33203 11.8633 2.96094 10.8086 2.50391 9.33203C2.75 9.36719 2.96094 9.40234 3.20703 9.40234C3.52344 9.40234 3.875 9.33203 4.15625 9.26172C2.46875 8.91016 1.20312 7.43359 1.20312 5.64062V5.60547C1.69531 5.88672 2.29297 6.02734 2.89062 6.0625C1.87109 5.39453 1.23828 4.26953 1.23828 3.00391C1.23828 2.30078 1.41406 1.66797 1.73047 1.14062C3.55859 3.35547 6.30078 4.83203 9.35938 5.00781C9.28906 4.72656 9.25391 4.44531 9.25391 4.16406C9.25391 2.125 10.9062 0.472656 12.9453 0.472656C14 0.472656 14.9492 0.894531 15.6523 1.63281C16.4609 1.45703 17.2695 1.14062 17.9727 0.71875C17.6914 1.59766 17.1289 2.30078 16.3555 2.75781C17.0938 2.6875 17.832 2.47656 18.4648 2.19531C17.9727 2.93359 17.3398 3.56641 16.6367 4.09375Z"
          fill="black"/>
</svg>
