<svg width="19" height="18" viewBox="0 0 19 18" fill="none" xmlns="http://www.w3.org/2000/svg">
    <path fill-rule="evenodd" clip-rule="evenodd"
          d="M15.0714 16.2857H3.92857C2.9818 16.2857 2.21429 15.5182 2.21429 14.5714V3.42857C2.21429 2.4818 2.9818 1.71428 3.92857 1.71428H15.0714C16.0182 1.71428 16.7857 2.4818 16.7857 3.42857V14.5714C16.7857 15.5182 16.0182 16.2857 15.0714 16.2857ZM3.92857 18C2.03502 18 0.5 16.465 0.5 14.5714V3.42857C0.5 1.53502 2.03502 0 3.92857 0H15.0714C16.965 0 18.5 1.53502 18.5 3.42857V14.5714C18.5 16.465 16.965 18 15.0714 18H3.92857Z"
          fill="#0E0E0E"/>
    <path d="M10.0446 7.47443C10.0446 7.58488 10.1342 7.67443 10.2446 7.67443H11.9189C12.0747 7.67443 12.1707 7.84469 12.09 7.97798L9.61438 12.0685C9.53371 12.2018 9.62968 12.3721 9.78548 12.3721H14.9452C15.0556 12.3721 15.1452 12.2826 15.1452 12.1721V10.8512C15.1452 10.7407 15.0556 10.6512 14.9452 10.6512H13.0164C12.8605 10.6512 12.7646 10.4806 12.8455 10.3474L15.3857 6.16428C15.4666 6.031 15.3707 5.86047 15.2148 5.86047H10.2446C10.1342 5.86047 10.0446 5.95002 10.0446 6.06047V7.47443Z"
          fill="#0E0E0E"/>
    <path d="M3.56934 7.47443C3.56934 7.58488 3.65888 7.67443 3.76934 7.67443H5.25981C5.37027 7.67443 5.45981 7.76397 5.45981 7.87443V12.1721C5.45981 12.2826 5.54935 12.3721 5.65981 12.3721H7.33933C7.44979 12.3721 7.53933 12.2826 7.53933 12.1721V7.87443C7.53933 7.76397 7.62887 7.67443 7.73933 7.67443H9.2298C9.34026 7.67443 9.4298 7.58488 9.4298 7.47443V6.06047C9.4298 5.95002 9.34026 5.86047 9.2298 5.86047H3.76934C3.65888 5.86047 3.56934 5.95002 3.56934 6.06047V7.47443Z"
          fill="#0E0E0E"/>
</svg>
