<svg width="18" height="18" viewBox="0 0 12 18" fill="none" xmlns="http://www.w3.org/2000/svg">
    <path d="M13.8008 13.1094C14.082 13.1094 14.293 13.4609 14.082 13.7422C12.6055 15.5352 10.3906 16.625 7.96484 16.625C3.64062 16.625 0.125 13.1094 0.125 8.75C0.125 4.42578 3.64062 0.875 8 0.875C8.42188 0.875 9.05469 0.945312 9.44141 1.01562C9.79297 1.08594 9.86328 1.54297 9.54688 1.71875C7.61328 2.80859 6.45312 4.84766 6.45312 7.0625C6.45312 10.543 9.23047 13.25 12.5703 13.25C12.957 13.25 13.3438 13.2148 13.7305 13.1445C13.7656 13.1094 13.7656 13.1094 13.8008 13.1094ZM7.96484 14.9375C8.73828 14.9375 9.47656 14.832 10.1797 14.5508C7.01562 13.5312 4.73047 10.5781 4.73047 7.0625C4.73047 5.58594 5.15234 4.14453 5.89062 2.94922C3.5 3.79297 1.8125 6.07812 1.8125 8.75C1.8125 12.1602 4.55469 14.9375 7.96484 14.9375Z"
          fill="white"/>
</svg>
