<svg width="19" height="17" viewBox="0 0 19 17" fill="none" xmlns="http://www.w3.org/2000/svg">
    <path d="M18.5 3.75V12.75C18.5 14.6484 16.9883 16.125 15.125 16.125H12.5938C12.1016 16.125 11.75 15.7734 11.75 15.2812C11.75 14.8242 12.1016 14.4375 12.5938 14.4375H15.125C16.0391 14.4375 16.8125 13.6992 16.8125 12.75V3.75C16.8125 2.83594 16.0391 2.0625 15.125 2.0625H12.5938C12.1016 2.0625 11.75 1.71094 11.75 1.21875C11.75 0.761719 12.1016 0.375 12.5938 0.375H15.125C16.9883 0.375 18.5 1.88672 18.5 3.75ZM12.6289 7.6875L8.12891 2.90625C7.8125 2.55469 7.28516 2.55469 6.93359 2.87109C6.58203 3.1875 6.58203 3.71484 6.89844 4.06641L10.0625 7.40625H1.34375C0.851562 7.40625 0.5 7.79297 0.5 8.25C0.5 8.74219 0.851562 9.09375 1.34375 9.09375H10.0625L6.89844 12.4688C6.58203 12.8203 6.58203 13.3477 6.93359 13.6641C7.10938 13.8047 7.32031 13.875 7.53125 13.875C7.74219 13.875 7.95312 13.8047 8.12891 13.6289L12.6289 8.84766C12.9453 8.53125 12.9453 8.00391 12.6289 7.6875Z"
          fill="white"/>
</svg>
